<?xml version="1.0" standalone="no"?>
<!DOCTYPE svg PUBLIC "-//W3C//DTD SVG 20010904//EN"
 "http://www.w3.org/TR/2001/REC-SVG-20010904/DTD/svg10.dtd">
<svg version="1.0" xmlns="http://www.w3.org/2000/svg"
 width="64" height="48" viewBox="0 0 1280.000000 960.000000"
 preserveAspectRatio="xMidYMid meet">

<g transform="translate(0.000000,960.000000) scale(0.100000,-0.100000)"
fill="#000000" stroke="none">
<path d="M6050 9345 c-783 -58 -1528 -314 -2180 -748 -488 -325 -928 -762
-1251 -1242 -426 -634 -673 -1317 -756 -2088 -21 -194 -23 -676 -5 -867 77
-777 326 -1477 755 -2120 276 -414 686 -840 1087 -1131 653 -474 1361 -752
2166 -851 164 -20 233 -23 529 -23 369 1 541 15 835 71 924 175 1767 628 2420
1300 764 787 1201 1772 1280 2884 67 947 -197 1947 -727 2759 -614 940 -1531
1609 -2618 1910 -480 133 -1017 184 -1535 146z m-2580 -3470 c6 -1187 6 -1201
28 -1319 91 -485 348 -771 750 -831 51 -8 98 -12 105 -9 7 3 39 67 71 142 68
157 171 393 190 437 8 17 91 208 186 425 95 217 178 409 185 425 8 17 62 140
120 275 219 503 224 515 266 605 27 59 33 86 38 169 l6 100 51 -46 c29 -25 72
-53 97 -63 40 -15 47 -15 73 -2 16 8 42 29 58 46 17 17 33 31 38 31 12 0 10
-1522 -2 -1638 -20 -186 -54 -334 -112 -480 -15 -40 -28 -78 -28 -85 0 -27
149 -167 245 -230 l40 -27 247 0 c177 0 248 3 248 11 0 6 -47 124 -104 263
-57 138 -152 368 -211 511 -59 143 -136 329 -171 414 l-64 153 0 389 c0 213 4
390 8 393 5 3 41 -75 82 -172 40 -97 81 -195 91 -217 10 -22 62 -143 115 -270
53 -126 149 -356 214 -510 109 -260 329 -782 438 -1042 43 -103 49 -112 76
-115 26 -3 30 -9 50 -78 12 -42 36 -102 54 -133 18 -32 30 -61 28 -66 -12 -18
-220 -36 -416 -35 -235 0 -362 19 -546 79 -297 97 -508 244 -723 503 -24 28
-48 52 -53 52 -14 0 -31 -47 -25 -72 4 -13 29 -50 57 -83 27 -32 50 -62 50
-66 0 -4 -35 -33 -77 -64 -98 -72 -274 -158 -378 -185 -238 -63 -583 -67 -820
-9 -424 104 -730 415 -844 859 -67 263 -64 199 -68 1548 l-4 1222 168 -2 168
-3 5 -1200z m2270 1101 c0 -58 3 -107 8 -110 4 -2 39 11 77 29 97 48 260 100
395 127 101 20 144 23 355 23 187 0 263 -4 345 -18 299 -52 583 -175 815 -352
99 -76 254 -238 334 -349 61 -84 65 -88 95 -83 17 3 69 13 116 21 483 88 982
-4 1313 -242 119 -85 307 -279 286 -295 -2 -2 -62 -52 -134 -111 l-129 -108
-16 23 c-8 13 -40 53 -71 89 -153 178 -364 294 -639 350 -134 27 -364 28 -523
0 -572 -98 -998 -481 -1162 -1048 -96 -330 -90 -738 16 -1069 17 -52 37 -97
44 -99 8 -3 48 13 89 37 351 200 599 551 696 987 59 268 49 612 -26 890 -14
51 -22 97 -19 102 6 9 246 105 279 111 22 5 43 -48 81 -206 41 -166 55 -294
55 -505 0 -119 -6 -236 -15 -300 -86 -603 -410 -1088 -907 -1359 -43 -24 -78
-48 -78 -54 0 -20 110 -154 183 -224 204 -193 470 -324 765 -374 167 -28 438
-23 572 10 308 77 557 239 750 489 l25 32 120 -91 c66 -50 126 -97 134 -104
12 -12 6 -24 -43 -84 -81 -99 -238 -247 -329 -309 -284 -195 -688 -293 -1095
-264 -675 48 -1201 386 -1487 955 -122 244 -183 462 -206 744 -34 415 47 816
232 1149 89 160 169 266 298 394 125 124 244 214 383 288 48 26 88 51 88 56 0
20 -116 159 -196 235 -194 184 -462 317 -739 367 -150 27 -438 25 -565 -3
-293 -66 -521 -207 -666 -412 -16 -22 -32 -41 -35 -41 -3 0 -65 50 -137 111
l-133 110 20 28 c11 15 27 34 36 41 13 11 15 49 15 266 l0 254 165 0 165 0 0
-104z m-237 -3412 c37 -34 64 -64 60 -68 -10 -10 -311 -7 -317 3 -4 5 9 18 26
30 18 11 55 42 82 70 56 57 46 60 149 -35z m-989 -254 c5 -5 -29 -96 -76 -207
-47 -109 -120 -280 -163 -380 l-78 -183 -168 0 c-136 0 -169 3 -169 14 0 7 27
76 61 152 33 76 88 202 121 279 33 77 73 168 89 203 16 34 29 66 29 70 0 4 8
21 18 37 l19 30 154 -3 c85 -2 158 -8 163 -12z m2509 -192 c31 -73 97 -230
147 -348 49 -118 90 -218 90 -222 0 -4 -83 -8 -184 -8 l-183 0 -86 208 c-148
358 -181 441 -176 446 2 2 56 9 119 15 63 6 135 17 160 25 25 8 48 14 51 15 4
1 32 -59 62 -131z"/>
<path d="M5399 5355 c-4 -5 -57 -129 -119 -275 -95 -226 -185 -436 -496 -1168
-24 -57 -44 -105 -44 -107 0 -3 33 -5 74 -5 72 0 76 1 149 50 186 124 322 330
386 585 41 163 53 280 58 585 5 294 4 354 -8 335z"/>
</g>
</svg>
